<svg id="Layer_1" enable-background="new 0 0 256 256" height="512" viewBox="0 0 256 256" width="512" xmlns="http://www.w3.org/2000/svg"><path d="m224.34 210.686h-10.003v-6.501c-2.767 1.918-5.63 3.05-8.407 3.05-2.665 0-5.477-1.143-8.232-3.084h-.17v6.535h-10.008c-8.362 0-15.14 6.778-15.14 15.14v13.72h67.1v-13.72c0-8.362-6.778-15.14-15.14-15.14z" fill="#f8e4c8"/><path d="m224.34 209.187h-8.502v-5.001c0-.558-.31-1.07-.804-1.329-.494-.258-1.091-.222-1.55.096-2.664 1.847-5.205 2.783-7.553 2.783-2.242 0-4.721-.945-7.368-2.81-.253-.178-.555-.274-.864-.274h-.17c-.829 0-1.5.671-1.5 1.5v5.035h-8.509c-9.175 0-16.64 7.464-16.64 16.64v13.72c0 .829.671 1.5 1.5 1.5h67.1c.829 0 1.5-.671 1.5-1.5v-13.72c0-9.176-7.465-16.64-16.64-16.64zm13.64 28.859h-64.1v-12.22c0-7.521 6.119-13.64 13.64-13.64h10.009c.829 0 1.5-.671 1.5-1.5v-3.93c2.385 1.315 4.699 1.979 6.901 1.979 2.232 0 4.547-.63 6.908-1.878v3.829c0 .829.671 1.5 1.5 1.5h10.002c7.521 0 13.64 6.119 13.64 13.64z" fill="#3a312a"/><path d="m224.34 210.68h-2.393l.061.049-10.404 13.795-5.37-4.042-5.369 4.042-10.404-13.795.061-.049h-3.001c-8.365 0-15.141 6.782-15.141 15.14v13.728h67.1v-13.728c0-8.358-6.776-15.14-15.14-15.14z" fill="#89c4db"/><path d="m224.339 209.18h-2.392c-.597 0-1.107.375-1.341.917l-9.297 12.328-4.172-3.141c-.534-.402-1.271-.402-1.805 0l-4.172 3.141-9.216-12.221c-.002-.006-.004-.013-.007-.019-.21-.602-.778-1.004-1.416-1.004h-3.001c-9.176 0-16.641 7.465-16.641 16.64v13.729c0 .829.671 1.5 1.5 1.5h67.1c.829 0 1.5-.671 1.5-1.5v-13.73c.001-9.175-7.464-16.64-16.64-16.64zm13.641 28.869h-64.1v-12.229c0-7.521 6.119-13.64 13.641-13.64h2.156l9.99 13.247c.499.661 1.439.793 2.1.295l4.467-3.363 4.467 3.363c.661.498 1.601.366 2.1-.295l9.99-13.247h1.547c7.521 0 13.641 6.119 13.641 13.64v12.229z" fill="#3a312a"/><path d="m190.462 210.729.06-.05h-3.004c-8.363 0-15.139 6.781-15.139 15.144v13.727h28.329z" fill="#87796f"/><path d="m202.122 239.047-10.1-28.408c-.004-.156-.033-.314-.087-.466-.214-.596-.779-.994-1.412-.994h-3.004c-9.175 0-16.639 7.466-16.639 16.644v13.727c0 .829.671 1.5 1.5 1.5h28.329c.487 0 .944-.237 1.226-.635.28-.398.35-.909.187-1.368zm-28.242-.997v-12.227c0-7.523 6.118-13.644 13.639-13.644h1.867l9.197 25.871z" fill="#3a312a"/><path d="m224.341 210.679h-2.396l.065.05-10.247 28.821h27.716v-13.727c0-8.363-6.775-15.144-15.138-15.144z" fill="#87796f"/><path d="m224.341 209.179h-2.396c-.643 0-1.183.435-1.389 1.045-.033.099-.055.2-.066.301l-10.14 28.522c-.164.459-.093.969.188 1.367s.738.635 1.226.635h27.716c.829 0 1.5-.671 1.5-1.5v-13.727c-.001-9.176-7.464-16.643-16.639-16.643zm13.638 28.871h-24.09l9.197-25.871h1.254c7.521 0 13.639 6.121 13.639 13.644z" fill="#3a312a"/><path clip-rule="evenodd" d="m179.933 167.198c-3.29 0-5.957 2.667-5.957 5.957s2.667 5.957 5.957 5.957 5.957-2.667 5.957-5.957-2.667-5.957-5.957-5.957z" fill="#f8e4c8" fill-rule="evenodd"/><path d="m179.933 165.698c-4.112 0-7.458 3.345-7.458 7.457s3.345 7.457 7.458 7.457c4.112 0 7.457-3.345 7.457-7.457 0-4.111-3.345-7.457-7.457-7.457zm0 11.915c-2.458 0-4.458-2-4.458-4.457 0-2.458 2-4.457 4.458-4.457s4.457 2 4.457 4.457-1.999 4.457-4.457 4.457z" fill="#3a312a"/><path clip-rule="evenodd" d="m231.929 167.198c-3.29 0-5.957 2.667-5.957 5.957s2.667 5.957 5.957 5.957 5.957-2.667 5.957-5.957-2.667-5.957-5.957-5.957z" fill="#f8e4c8" fill-rule="evenodd"/><path d="m231.929 165.698c-4.112 0-7.458 3.345-7.458 7.457s3.345 7.457 7.458 7.457c4.112 0 7.457-3.345 7.457-7.457 0-4.111-3.345-7.457-7.457-7.457zm0 11.915c-2.458 0-4.458-2-4.458-4.457 0-2.458 2-4.457 4.458-4.457s4.457 2 4.457 4.457-1.999 4.457-4.457 4.457z" fill="#3a312a"/><path d="m184.949 227.204c-.829 0-1.5.671-1.5 1.5v10.844c0 .829.671 1.5 1.5 1.5s1.5-.671 1.5-1.5v-10.844c0-.829-.672-1.5-1.5-1.5z" fill="#3a312a"/><path d="m227.522 227.204c-.829 0-1.5.671-1.5 1.5v10.844c0 .829.671 1.5 1.5 1.5s1.5-.671 1.5-1.5v-10.844c0-.829-.671-1.5-1.5-1.5z" fill="#3a312a"/><path d="m208.803 229.406h-5.156l-1.565 10.143h8.286z" fill="#ef6d7a"/><path d="m211.851 239.32-1.565-10.143c-.113-.731-.742-1.272-1.482-1.272h-5.156c-.74 0-1.37.54-1.482 1.272l-1.566 10.143c-.067.433.059.873.344 1.205s.701.523 1.139.523h8.286c.438 0 .854-.191 1.139-.523.284-.332.409-.772.343-1.205zm-8.02-1.271 1.102-7.143h2.584l1.102 7.143z" fill="#3a312a"/><path d="m201.908 220.473 1.743 8.931h5.146l1.785-8.931z" fill="#ef6d7a"/><path d="m211.742 219.522c-.285-.347-.711-.549-1.16-.549h-8.674c-.448 0-.873.2-1.158.546s-.4.801-.315 1.241l1.743 8.931c.137.704.754 1.212 1.472 1.212h5.146c.715 0 1.331-.505 1.471-1.206l1.785-8.931c.089-.439-.025-.896-.31-1.244zm-4.175 8.382h-2.681l-1.157-5.931h5.023z" fill="#3a312a"/><path d="m194.986 206.953h6.751v17.282h-6.751z" fill="#89c4db" transform="matrix(.799 -.602 .602 .799 -89.808 162.805)"/><path d="m207.455 219.56-10.401-13.801c-.239-.318-.595-.527-.989-.582-.393-.056-.793.048-1.111.288l-5.392 4.063c-.662.499-.793 1.439-.295 2.101l10.401 13.801c.239.318.595.527.989.583.069.01.139.015.208.015.324 0 .641-.105.903-.302l5.391-4.064c.663-.5.795-1.44.296-2.102zm-6.294 2.866-8.596-11.406 2.996-2.258 8.595 11.406z" fill="#3a312a"/><path d="m205.469 212.218h17.282v6.751h-17.282z" fill="#89c4db" transform="matrix(.602 -.799 .799 .602 -86.928 256.827)"/><path d="m222.909 209.527-5.392-4.063c-.318-.24-.718-.344-1.111-.288-.394.055-.75.265-.989.582l-10.401 13.801c-.499.662-.367 1.602.295 2.1l5.391 4.064c.262.197.579.302.903.302.069 0 .139-.005.208-.015.394-.055.75-.265.989-.583l10.401-13.801c.5-.66.368-1.6-.294-2.099zm-11.599 12.899-2.996-2.258 8.595-11.406 2.996 2.258z" fill="#3a312a"/><path d="m223.759 150.787c-.954-.869-1.768-1.864-2.421-2.943-3.677 2.25-9.051 3.672-15.038 3.672-1.421 0-2.808-.08-4.149-.236-9.624-1.095-18.85 4.646-21.899 13.843-.296.884-.502 1.733-.598 2.521-.015.11-.025.221-.035.331-.06.753-.095 1.517-.095 2.29 0 14.581 14.606 36.973 26.41 36.973 12.361 0 26.405-22.392 26.405-36.973-.001-7.715-3.306-14.651-8.58-19.478z" fill="#f8e4c8"/><path d="m224.769 149.678c-.84-.765-1.563-1.643-2.147-2.61-.207-.342-.54-.587-.929-.682-.387-.093-.797-.03-1.138.178-3.583 2.193-8.779 3.451-14.255 3.451-1.345 0-2.683-.076-3.98-.227-10.366-1.178-20.247 5.071-23.491 14.856-.336 1.003-.56 1.952-.662 2.794-.018.131-.03.262-.044.416-.067.844-.1 1.632-.1 2.41 0 15.191 14.97 38.473 27.91 38.473 13.206 0 27.905-22.932 27.905-38.473 0-7.808-3.305-15.31-9.069-20.586zm-18.836 56.06c-10.994 0-24.91-21.994-24.91-35.473 0-.697.03-1.408.089-2.155.008-.088.016-.176.031-.288.08-.665.259-1.413.532-2.229 2.574-7.765 9.992-12.948 18.13-12.948.719 0 1.444.041 2.172.123 1.407.164 2.861.247 4.322.247 5.417 0 10.634-1.151 14.569-3.188.558.745 1.186 1.437 1.877 2.066 5.143 4.706 8.092 11.403 8.092 18.372.001 13.686-13.598 35.473-24.904 35.473z" fill="#3a312a"/><path d="m196.607 167.388c-1.424 0-2.578 1.154-2.578 2.578s1.154 2.578 2.578 2.578 2.578-1.154 2.578-2.578-1.154-2.578-2.578-2.578z" fill="#3a312a"/><path d="m215.255 167.388c-1.424 0-2.578 1.154-2.578 2.578s1.154 2.578 2.578 2.578 2.578-1.154 2.578-2.578-1.155-2.578-2.578-2.578z" fill="#3a312a"/><path d="m191.455 174.309c-2.452 0-4.44 1.486-4.44 3.319s1.988 3.319 4.44 3.319 4.44-1.486 4.44-3.319c.001-1.832-1.988-3.319-4.44-3.319z" fill="#f59689"/><path d="m220.406 174.309c-2.452 0-4.44 1.486-4.44 3.319s1.988 3.319 4.44 3.319 4.44-1.486 4.44-3.319c.001-1.832-1.987-3.319-4.44-3.319z" fill="#f59689"/><path d="m213.753 185.738c-.777-.292-1.64.103-1.931.879-.537 1.434-2.549 3.568-5.892 3.568-2.857 0-4.746-1.171-5.943-3.687-.356-.748-1.252-1.065-1.999-.71-.748.356-1.066 1.251-.71 1.999 1.705 3.581 4.616 5.398 8.652 5.398 4.56 0 7.707-2.859 8.702-5.516.29-.776-.103-1.64-.879-1.931z" fill="#3a312a"/><path d="m47.431 26.214c-.974 11.564-13.025 13.39-13.025 13.39 10.347.487 12.925 14.059 12.925 14.059.221-9.677 13.321-14.202 13.321-14.202-9.813-.588-13.221-13.247-13.221-13.247z" fill="#d6df58"/><path d="m60.743 37.963c-8.605-.515-11.832-12.024-11.864-12.141-.191-.703-.866-1.169-1.583-1.102-.725.066-1.298.642-1.359 1.367-.86 10.215-11.314 11.964-11.755 12.033-.763.115-1.313.79-1.273 1.56s.657 1.384 1.428 1.421c9.028.425 11.499 12.718 11.523 12.842.137.711.759 1.217 1.472 1.217.042 0 .085-.002.126-.005.764-.064 1.357-.693 1.375-1.459.195-8.509 12.192-12.777 12.313-12.819.675-.235 1.092-.914.994-1.622-.1-.708-.684-1.249-1.397-1.292zm-13.567 10.346c-1.357-3.13-3.709-6.907-7.587-8.876 2.931-1.404 6.409-3.913 8.202-8.273 1.551 3.071 4.199 6.88 8.334 8.723-3.007 1.639-6.922 4.405-8.949 8.426z" fill="#3a312a"/><path d="m25.732 43.195c-.689 8.179-9.212 9.47-9.212 9.47 7.318.344 9.142 9.944 9.142 9.944.156-6.844 9.422-10.045 9.422-10.045-6.941-.415-9.352-9.369-9.352-9.369z" fill="#d6df58"/><path d="m35.173 51.066c-5.766-.345-7.972-8.185-7.993-8.264-.19-.702-.855-1.169-1.582-1.102-.725.065-1.299.642-1.36 1.368-.579 6.871-7.646 8.067-7.942 8.114-.763.115-1.313.79-1.273 1.561.04.77.657 1.384 1.428 1.421 6.035.284 7.723 8.643 7.739 8.725.135.713.759 1.22 1.472 1.22.042 0 .083-.002.125-.005.765-.063 1.358-.694 1.376-1.461.13-5.709 8.332-8.634 8.412-8.662.677-.234 1.094-.913.996-1.622-.098-.708-.683-1.25-1.398-1.293zm-9.584 6.796c-.924-1.886-2.34-3.947-4.447-5.28 1.856-1.041 3.697-2.63 4.871-4.916 1.057 1.874 2.654 3.954 4.941 5.223-1.85 1.101-3.989 2.74-5.365 4.973z" fill="#3a312a"/><path d="m25.732 16.537c-.689 8.179-9.212 9.471-9.212 9.471 7.318.344 9.142 9.944 9.142 9.944.156-6.845 9.422-10.045 9.422-10.045-6.941-.416-9.352-9.37-9.352-9.37z" fill="#d6df58"/><path d="m35.174 24.409c-5.766-.345-7.972-8.186-7.994-8.265-.19-.702-.855-1.17-1.582-1.102-.725.065-1.299.642-1.36 1.368-.579 6.871-7.646 8.067-7.942 8.114-.763.115-1.313.79-1.273 1.56s.657 1.384 1.427 1.421c6.035.284 7.724 8.644 7.739 8.726.135.712.759 1.22 1.472 1.22.042 0 .083-.001.125-.005.765-.064 1.358-.694 1.376-1.461.13-5.709 8.331-8.634 8.412-8.662.676-.234 1.094-.913.996-1.622-.097-.707-.682-1.249-1.396-1.292zm-9.585 6.796c-.924-1.886-2.34-3.947-4.447-5.28 1.856-1.042 3.697-2.63 4.871-4.917 1.057 1.874 2.654 3.954 4.941 5.224-1.85 1.101-3.989 2.74-5.365 4.973z" fill="#3a312a"/><path d="m128.054 71.776c-.829 0-1.5.671-1.5 1.5v71.12c0 .829.671 1.5 1.5 1.5s1.5-.671 1.5-1.5v-71.12c0-.828-.672-1.5-1.5-1.5z" fill="#3a312a"/><path d="m210.554 112.276h-165c-.829 0-1.5.671-1.5 1.5v30.814c0 .829.671 1.5 1.5 1.5s1.5-.671 1.5-1.5v-29.314h162v29.314c0 .829.671 1.5 1.5 1.5s1.5-.671 1.5-1.5v-30.814c0-.828-.672-1.5-1.5-1.5z" fill="#3a312a"/><path d="m233.574 164.133c0-14.422-12.229-26.113-27.313-26.113-15.085 0-27.313 11.691-27.313 26.114 0 1.526.276 2.663.789 4.085.242.67 4.153-1.47 4.486-1.704 1.665-1.172 3.026-2.762 4.043-4.519.42-.73.771-1.474 1.054-2.217.9-2.372 3.346-8.973 5.83-8.455 3.331.694 7.106 1.087 11.111 1.087s7.78-.392 11.111-1.087c2.484-.518 4.93 6.083 5.83 8.455.282.744.633 1.487 1.054 2.218 1.68 2.906 4.518 5.673 7.971 6.177.009-.167.219-.224.376-.281 1.13-.412.971-2.854.971-3.76z" fill="#87796f"/><path d="m235.077 164.416-.003-.284c0-15.226-12.926-27.613-28.814-27.613s-28.813 12.388-28.813 27.614c0 1.794.351 3.134.878 4.594.178.494.574.869 1.086 1.031.158.05.337.072.532.072 1.857 0 5.109-2.066 5.143-2.09 1.751-1.233 3.3-2.96 4.48-4.997.452-.785.84-1.604 1.155-2.434l.058-.151c2.509-6.62 3.775-7.311 4.064-7.368 3.56.742 7.401 1.119 11.417 1.119s7.857-.376 11.378-1.116c.328.054 1.594.746 4.104 7.365l.058.151c.315.831.705 1.65 1.157 2.436 2.21 3.823 5.594 6.406 9.053 6.911.419.061.843-.057 1.169-.326.039-.032.075-.065.11-.1 1.847-.823 1.809-3.407 1.788-4.814zm-3.168 2.134c-.019.007-.037.015-.054.023-2.361-.576-4.681-2.525-6.299-5.327-.373-.646-.692-1.319-.951-2.001l-.057-.15c-1.971-5.199-4.238-9.914-7.483-9.241-3.359.7-6.994 1.055-10.805 1.055-3.81 0-7.445-.355-10.804-1.055-3.246-.682-5.511 4.042-7.482 9.241l-.057.15c-.259.681-.579 1.354-.949 1.998-.962 1.66-2.21 3.059-3.589 4.03-.41.265-1.693.929-2.6 1.306-.214-.769-.332-1.518-.332-2.447 0-13.572 11.579-24.614 25.813-24.614s25.814 11.042 25.814 24.613l.003.328c.016 1.083-.04 1.784-.168 2.091zm1.103 2.788-.541-1.399.639 1.352c-.035.019-.068.035-.098.047z" fill="#3a312a"/><path d="m227.532 227.127c-.829 0-1.5.671-1.5 1.5v10.836c0 .829.671 1.5 1.5 1.5s1.5-.671 1.5-1.5v-10.836c0-.828-.672-1.5-1.5-1.5z" fill="#3a312a"/><path d="m184.99 227.127c-.829 0-1.5.671-1.5 1.5v10.836c0 .829.671 1.5 1.5 1.5s1.5-.671 1.5-1.5v-10.836c0-.828-.671-1.5-1.5-1.5z" fill="#3a312a"/><path clip-rule="evenodd" d="m206.728 128.946c-15.735 0-21.401 5.996-21.401 13.392s5.666 13.392 21.401 13.392 28.491-13.392 28.491-13.392-12.756-13.392-28.491-13.392z" fill="#87796f" fill-rule="evenodd"/><path d="m236.305 141.303c-.539-.566-13.386-13.857-29.578-13.857-19.926 0-22.901 9.331-22.901 14.892 0 5.562 2.975 14.893 22.901 14.893 16.192 0 29.039-13.292 29.578-13.858.552-.58.552-1.49 0-2.07zm-29.578 12.928c-9.079 0-19.901-2.064-19.901-11.893s10.822-11.892 19.901-11.892c12.363 0 23.006 8.824 26.332 11.892-3.326 3.068-13.969 11.893-26.332 11.893z" fill="#3a312a"/><path d="m99.353 165.397h56.636v64.825h-56.636z" fill="#87796f"/><path d="m155.99 163.897h-56.636c-.829 0-1.5.671-1.5 1.5v64.825c0 .829.671 1.5 1.5 1.5h56.636c.829 0 1.5-.671 1.5-1.5v-64.825c0-.829-.672-1.5-1.5-1.5zm-1.5 64.825h-53.636v-61.825h53.636z" fill="#3a312a"/><path d="m146.442 217.473h-9.995v-6.496c-2.764 1.917-5.625 3.047-8.401 3.047-2.663 0-5.473-1.142-8.226-3.082h-.169v6.53h-10.001c-8.355 0-15.128 6.773-15.128 15.128v6.862h67.048v-6.862c.001-8.354-6.772-15.127-15.128-15.127z" fill="#fae6ca"/><path d="m146.442 215.973h-8.495v-4.996c0-.558-.31-1.07-.804-1.329-.494-.258-1.091-.222-1.55.096-2.661 1.845-5.2 2.78-7.546 2.78-2.24 0-4.717-.945-7.362-2.808-.253-.178-.555-.274-.864-.274h-.169c-.829 0-1.5.671-1.5 1.5v5.03h-8.501c-9.169 0-16.628 7.46-16.628 16.628v6.862c0 .829.671 1.5 1.5 1.5h67.049c.829 0 1.5-.671 1.5-1.5v-6.862c-.001-9.167-7.461-16.627-16.63-16.627zm13.629 21.99h-64.049v-5.362c0-7.515 6.114-13.628 13.628-13.628h10.001c.829 0 1.5-.671 1.5-1.5v-3.925c2.383 1.313 4.694 1.977 6.895 1.977 2.231 0 4.543-.629 6.901-1.875v3.824c0 .829.671 1.5 1.5 1.5h9.995c7.515 0 13.628 6.113 13.628 13.628v5.361z" fill="#3a312a"/><path d="m146.443 217.469h-2.391l.062.045-10.396 13.789-5.365-4.042-5.365 4.042-10.396-13.789.062-.045h-3.002c-8.356 0-15.128 6.773-15.128 15.128v6.866h67.049v-6.866c-.002-8.355-6.775-15.128-15.13-15.128z" fill="#ef6d7a"/><path d="m146.442 215.968h-2.391c-.598 0-1.107.373-1.341.914l-9.289 12.319-4.167-3.14c-.535-.402-1.271-.402-1.805 0l-4.168 3.14-9.207-12.211c-.205-.611-.777-1.023-1.422-1.023h-3.002c-9.169 0-16.628 7.459-16.628 16.629v6.866c0 .829.671 1.5 1.5 1.5h67.048c.829 0 1.5-.671 1.5-1.5v-6.866c.001-9.168-7.459-16.628-16.628-16.628zm13.629 21.995h-64.048v-5.366c0-7.515 6.113-13.629 13.628-13.629h2.158l9.98 13.237c.5.662 1.439.793 2.1.295l4.463-3.362 4.462 3.362c.662.498 1.601.366 2.101-.295l9.98-13.237h1.547c7.515 0 13.628 6.114 13.628 13.629v5.366z" fill="#3a312a"/><path d="m112.59 217.51.06-.04h-3c-8.35 0-15.13 6.77-15.13 15.13v6.86h26.94z" fill="#87796f"/><path d="m122.851 238.898-8.705-21.542c-.008-.106-.027-.212-.059-.317-.19-.635-.774-1.069-1.437-1.069h-3c-9.17 0-16.63 7.46-16.63 16.63v6.86c0 .829.671 1.5 1.5 1.5h26.94c.498 0 .965-.248 1.244-.661.278-.414.334-.939.147-1.401zm-26.831-.938v-5.36c0-7.516 6.114-13.63 13.63-13.63h1.912l7.674 18.99z" fill="#3a312a"/><path d="m146.44 217.47h-2.39l.06.04-8.87 21.95h26.33v-6.86c0-8.36-6.77-15.13-15.13-15.13z" fill="#87796f"/><path d="m146.44 215.97h-2.39c-.663 0-1.217.455-1.407 1.089-.018.059-.031.118-.041.178l-8.753 21.66c-.187.463-.132.987.147 1.401.279.413.745.661 1.244.661h26.33c.829 0 1.5-.671 1.5-1.5v-6.86c0-9.169-7.46-16.629-16.63-16.629zm13.63 21.99h-22.605l7.673-18.99h1.302c7.516 0 13.63 6.114 13.63 13.63z" fill="#3a312a"/><ellipse clip-rule="evenodd" cx="102.069" cy="179.971" fill="#fae6ca" fill-rule="evenodd" rx="5.953" ry="5.953" transform="matrix(.707 -.707 .707 .707 -97.363 124.886)"/><path d="m102.069 172.518c-4.109 0-7.453 3.343-7.453 7.453s3.343 7.453 7.453 7.453c4.109 0 7.453-3.343 7.453-7.453s-3.343-7.453-7.453-7.453zm0 11.905c-2.455 0-4.453-1.997-4.453-4.453s1.998-4.453 4.453-4.453 4.453 1.997 4.453 4.453-1.998 4.453-4.453 4.453z" fill="#3a312a"/><path d="m117.11 213.743h6.746v17.269h-6.746z" fill="#ef6d7a" transform="matrix(.799 -.602 .602 .799 -109.574 117.299)"/><path d="m129.572 226.339-10.394-13.791c-.499-.662-1.439-.794-2.101-.295l-5.387 4.06c-.662.498-.793 1.439-.295 2.101l10.393 13.79c.295.391.744.597 1.199.597.315 0 .631-.098.902-.302l5.388-4.06c.318-.239.527-.595.582-.989.056-.393-.048-.793-.287-1.111zm-6.291 2.863-8.588-11.395 2.992-2.254 8.588 11.395z" fill="#3a312a"/><path d="m127.586 219.004h17.269v6.746h-17.269z" fill="#ef6d7a" transform="matrix(.602 -.799 .799 .602 -123.356 197.324)"/><path d="m145.596 217.303c-.055-.394-.265-.75-.583-.989l-5.388-4.06c-.662-.5-1.603-.367-2.101.295l-10.393 13.791c-.498.662-.367 1.602.295 2.1l5.387 4.06c.271.204.587.302.902.302.455 0 .904-.206 1.199-.597l10.394-13.79c.24-.318.343-.718.288-1.112zm-12.174 11.899-2.992-2.254 8.587-11.395 2.992 2.254z" fill="#3a312a"/><ellipse clip-rule="evenodd" cx="154.011" cy="179.84" fill="#fae6ca" fill-rule="evenodd" rx="5.953" ry="5.953" transform="matrix(.997 -.083 .083 .997 -14.308 13.316)"/><path d="m154.011 172.388c-4.109 0-7.453 3.343-7.453 7.453 0 4.109 3.343 7.453 7.453 7.453 4.109 0 7.453-3.343 7.453-7.453-.001-4.11-3.344-7.453-7.453-7.453zm0 11.905c-2.455 0-4.453-1.998-4.453-4.453s1.998-4.453 4.453-4.453 4.453 1.998 4.453 4.453c-.001 2.455-1.998 4.453-4.453 4.453z" fill="#3a312a"/><path d="m128.047 150.693c-14.574 0-26.389 11.815-26.389 26.389s14.598 36.944 26.389 36.944c12.353 0 26.389-22.37 26.389-36.944 0-14.575-11.814-26.389-26.389-26.389z" fill="#fae6ca"/><path d="m128.047 149.192c-15.378 0-27.889 12.511-27.889 27.889 0 15.179 14.958 38.444 27.889 38.444 13.198 0 27.889-22.915 27.889-38.444 0-15.377-12.511-27.889-27.889-27.889zm0 63.333c-10.984 0-24.889-21.976-24.889-35.444 0-13.724 11.165-24.889 24.889-24.889s24.889 11.165 24.889 24.889c0 13.674-13.59 35.444-24.889 35.444z" fill="#3a312a"/><path d="m118.731 174.208c-1.422 0-2.576 1.153-2.576 2.576s1.153 2.576 2.576 2.576 2.576-1.153 2.576-2.576c-.001-1.423-1.154-2.576-2.576-2.576z" fill="#3a312a"/><path d="m137.364 174.208c-1.423 0-2.576 1.153-2.576 2.576s1.153 2.576 2.576 2.576 2.576-1.153 2.576-2.576-1.153-2.576-2.576-2.576z" fill="#3a312a"/><path d="m113.583 181.124c-2.45 0-4.437 1.485-4.437 3.317s1.987 3.317 4.437 3.317c2.451 0 4.437-1.485 4.437-3.317s-1.987-3.317-4.437-3.317z" fill="#f59689"/><path d="m142.512 181.124c-2.45 0-4.437 1.485-4.437 3.317s1.986 3.317 4.437 3.317 4.437-1.485 4.437-3.317-1.987-3.317-4.437-3.317z" fill="#f59689"/><path d="m135.865 192.543c-.773-.291-1.64.102-1.931.878-.537 1.433-2.548 3.565-5.887 3.565-2.854 0-4.741-1.17-5.937-3.683-.355-.748-1.252-1.065-1.999-.71-.748.356-1.066 1.251-.71 1.999 1.704 3.579 4.612 5.394 8.646 5.394 4.556 0 7.702-2.857 8.697-5.512.29-.776-.103-1.64-.879-1.931z" fill="#3a312a"/><path d="m149.76 146.517c-5.544-5.858-13.392-9.512-22.09-9.512-3.253 0-6.385.511-9.32 1.462 2.324 5.391 5.072 10.567 8.814 15.073 1.72 2.066 3.627 3.973 5.644 5.742 1.643 1.462 3.363 2.841 5.11 4.165 5.957 4.522 12.386 8.523 19.145 11.781.665-2.495 1.017-5.116 1.017-7.819-.001-8.094-3.16-15.446-8.32-20.892z" fill="#87796f"/><path d="m150.849 145.486c-6.092-6.436-14.324-9.98-23.179-9.98-3.349 0-6.64.516-9.782 1.535-.402.13-.73.423-.904.808s-.178.825-.011 1.212c2.787 6.463 5.658 11.369 9.038 15.44 1.67 2.006 3.625 3.995 5.799 5.903 1.517 1.35 3.218 2.736 5.2 4.24 6.189 4.699 12.716 8.715 19.401 11.938.206.099.428.149.651.149.213 0 .427-.045.626-.137.406-.186.708-.545.823-.977.708-2.656 1.067-5.417 1.067-8.206.002-8.198-3.099-15.984-8.729-21.925zm5.181 27.561c-5.917-2.986-11.697-6.612-17.206-10.795-1.92-1.456-3.562-2.794-5.027-4.098-2.065-1.813-3.909-3.688-5.479-5.573-2.918-3.514-5.451-7.724-7.905-13.155 2.354-.612 4.787-.921 7.257-.921 8.023 0 15.481 3.211 21.001 9.043 5.1 5.382 7.909 12.436 7.909 19.861 0 1.905-.185 3.794-.55 5.638z" fill="#3a312a"/><path d="m127.67 137.005c-3.253 0-6.385.511-9.32 1.462-12.232 3.929-21.085 15.403-21.085 28.943 0 2.863.396 5.632 1.137 8.259 11.996-4.402 23.717-9.688 34.405-16.386 6.028-3.775 11.721-7.995 16.952-12.765-5.544-5.859-13.391-9.513-22.089-9.513z" fill="#87796f"/><path d="m150.849 145.486c-6.092-6.436-14.324-9.98-23.179-9.98-3.349 0-6.64.516-9.779 1.533-13.234 4.251-22.126 16.456-22.126 30.371 0 2.944.402 5.86 1.194 8.667.113.402.389.738.761.928.213.109.447.164.682.164.174 0 .35-.03.517-.092 13.507-4.956 24.853-10.361 34.684-16.523 6.332-3.965 12.107-8.314 17.167-12.928.297-.271.474-.651.488-1.053.015-.403-.132-.795-.409-1.087zm-18.838 12.525c-9.274 5.813-19.939 10.946-32.563 15.67-.454-2.049-.684-4.152-.684-6.272 0-12.607 8.055-23.664 20.047-27.516 2.843-.921 5.823-1.388 8.857-1.388 7.507 0 14.52 2.811 19.913 7.951-4.641 4.105-9.873 7.987-15.57 11.555z" fill="#3a312a"/><path d="m128.047 16.537c-7.469 0-14.429 2.164-20.304 5.886l-10.288 9.577c-4.654 6.306-7.408 14.099-7.408 22.538 0 20.987 17.013 38 38 38s38-17.013 38-38c0-20.988-17.014-38.001-38-38.001z" fill="#d6df58"/><path d="m128.046 15.037c-7.491 0-14.79 2.116-21.107 6.119-.7.443-.908 1.37-.464 2.07.443.699 1.37.908 2.07.464 5.837-3.698 12.58-5.653 19.501-5.653 20.126 0 36.5 16.374 36.5 36.5s-16.374 36.5-36.5 36.5-36.5-16.374-36.5-36.5c0-7.854 2.46-15.339 7.115-21.647.492-.667.35-1.606-.316-2.098-.667-.491-1.606-.35-2.098.316-5.038 6.828-7.701 14.929-7.701 23.428 0 21.78 17.72 39.5 39.5 39.5s39.5-17.72 39.5-39.5-17.719-39.499-39.5-39.499z" fill="#3a312a"/><path d="m132.565 50.24c-5.534-2.083-7.814-3.45-7.814-5.599 0-1.822 1.367-3.646 5.6-3.646 4.687 0 7.683 1.497 9.375 2.214l1.888-7.357c-2.149-1.042-5.079-1.955-9.441-2.149v-5.73h-6.381v6.185c-6.967 1.367-11.003 5.86-11.003 11.59 0 6.316 4.753 9.572 11.719 11.915 4.818 1.628 6.902 3.191 6.902 5.664 0 2.605-2.54 4.037-6.25 4.037-4.232 0-8.073-1.367-10.808-2.864l-1.953 7.617c2.474 1.432 6.706 2.604 11.068 2.8v6.185h6.381v-6.642c7.488-1.301 11.59-6.25 11.59-12.045 0-5.859-3.126-9.44-10.873-12.175z" fill="#87796f"/><path d="m133.093 48.836c-4.923-1.853-6.842-3.03-6.842-4.196 0-1.867 2.568-2.146 4.1-2.146 3.966 0 6.576 1.134 8.303 1.885l.487.21c.403.17.858.157 1.25-.037.392-.193.679-.548.788-.971l1.888-7.356c.178-.691-.156-1.412-.798-1.723-2.477-1.201-5.3-1.927-8.595-2.206v-4.323c0-.829-.671-1.5-1.5-1.5h-6.381c-.829 0-1.5.671-1.5 1.5v4.987c-6.821 1.757-11.003 6.57-11.003 12.788 0 8.023 6.809 11.342 12.74 13.336 5.169 1.746 5.881 3.071 5.881 4.243 0 2.415-3.957 2.538-4.75 2.538-4.518 0-8.259-1.679-10.088-2.68-.407-.223-.893-.245-1.317-.06-.425.185-.741.555-.856 1.003l-1.953 7.617c-.167.651.12 1.334.702 1.671 2.545 1.473 6.4 2.547 10.319 2.902v4.784c0 .829.671 1.5 1.5 1.5h6.381c.829 0 1.5-.671 1.5-1.5v-5.418c7.084-1.68 11.59-6.78 11.59-13.268-.001-6.589-3.553-10.653-11.846-13.58zm-1.502 24.146c-.719.125-1.243.749-1.243 1.478v5.141h-3.381v-4.685c0-.802-.631-1.462-1.433-1.498-3.39-.152-6.928-.949-9.386-2.085l1.196-4.666c2.324 1.047 5.793 2.197 9.816 2.197 4.708 0 7.75-2.174 7.75-5.538 0-3.875-3.807-5.695-7.923-7.086-7.499-2.522-10.698-5.66-10.698-10.494 0-5.132 3.661-8.914 9.792-10.118.704-.138 1.211-.755 1.211-1.472v-4.685h3.381v4.23c0 .802.631 1.463 1.433 1.499 2.987.133 5.533.628 7.739 1.509l-1.138 4.434c-1.878-.761-4.613-1.649-8.357-1.649-5.234 0-7.1 2.658-7.1 5.146 0 3.425 3.808 5.13 8.814 7.014 8.193 2.892 9.872 6.393 9.872 10.761.002 5.409-3.963 9.459-10.345 10.567z" fill="#3a312a"/><path d="m128.047 18.036c-2.75 0-5.43.31-8 .89 16.3 3.65 28.5 18.23 28.5 35.61s-12.2 31.96-28.5 35.61c2.57.58 5.25.89 8 .89 20.13 0 36.5-16.37 36.5-36.5s-16.37-36.5-36.5-36.5z" fill="#b8c136"/><path d="m107.081 227.085c-.829 0-1.5.671-1.5 1.5v10.878c0 .829.671 1.5 1.5 1.5s1.5-.671 1.5-1.5v-10.878c0-.829-.671-1.5-1.5-1.5z" fill="#3a312a"/><path d="m149.012 227.127c-.829 0-1.5.671-1.5 1.5v10.836c0 .829.671 1.5 1.5 1.5s1.5-.671 1.5-1.5v-10.836c0-.828-.671-1.5-1.5-1.5z" fill="#3a312a"/><path d="m68.48 210.686h-10.003v-6.501c-2.767 1.918-5.63 3.05-8.407 3.05-2.665 0-5.477-1.143-8.232-3.084h-.17v6.535h-10.008c-8.362 0-15.14 6.778-15.14 15.14v13.72h67.1v-13.72c0-8.362-6.778-15.14-15.14-15.14z" fill="#f8e4c8"/><path d="m68.48 209.187h-8.503v-5.001c0-.558-.31-1.07-.804-1.329-.494-.258-1.092-.222-1.55.096-2.664 1.847-5.205 2.783-7.553 2.783-2.242 0-4.721-.945-7.368-2.81-.253-.178-.555-.274-.864-.274h-.169c-.829 0-1.5.671-1.5 1.5v5.035h-8.509c-9.175 0-16.64 7.464-16.64 16.64v13.72c0 .829.671 1.5 1.5 1.5h67.1c.829 0 1.5-.671 1.5-1.5v-13.72c0-9.176-7.465-16.64-16.64-16.64zm13.64 28.859h-64.1v-12.22c0-7.521 6.119-13.64 13.64-13.64h10.009c.829 0 1.5-.671 1.5-1.5v-3.93c2.385 1.315 4.699 1.979 6.901 1.979 2.232 0 4.547-.63 6.908-1.878v3.829c0 .829.671 1.5 1.5 1.5h10.002c7.521 0 13.64 6.119 13.64 13.64z" fill="#3a312a"/><path d="m68.48 210.68h-2.392l.061.049-10.404 13.795-5.37-4.042-5.37 4.042-10.404-13.795.061-.049h-3.001c-8.365 0-15.141 6.782-15.141 15.14v13.728h67.1v-13.728c0-8.358-6.776-15.14-15.14-15.14z" fill="#d7e057"/><path d="m68.479 209.18h-2.392c-.597 0-1.106.375-1.341.917l-9.297 12.328-4.172-3.141c-.534-.402-1.271-.402-1.805 0l-4.172 3.141-9.216-12.221c-.003-.006-.004-.013-.007-.019-.21-.602-.778-1.004-1.415-1.004h-3.001c-9.176 0-16.641 7.465-16.641 16.64v13.729c0 .829.671 1.5 1.5 1.5h67.1c.829 0 1.5-.671 1.5-1.5v-13.73c0-9.175-7.465-16.64-16.641-16.64zm13.641 28.869h-64.1v-12.229c0-7.521 6.119-13.64 13.641-13.64h2.156l9.99 13.247c.499.661 1.439.793 2.1.295l4.467-3.363 4.467 3.363c.662.498 1.602.366 2.1-.295l9.99-13.247h1.547c7.521 0 13.641 6.119 13.641 13.64v12.229z" fill="#3a312a"/><path d="m34.602 210.729.06-.05h-3.004c-8.363 0-15.139 6.781-15.139 15.144v13.727h28.329z" fill="#87796f"/><path d="m46.262 239.047-10.1-28.408c-.004-.156-.033-.314-.087-.466-.214-.596-.779-.994-1.412-.994h-3.004c-9.175 0-16.639 7.466-16.639 16.644v13.727c0 .829.671 1.5 1.5 1.5h28.329c.487 0 .944-.237 1.226-.635.28-.398.35-.909.187-1.368zm-28.242-.997v-12.227c0-7.523 6.118-13.644 13.639-13.644h1.867l9.197 25.871z" fill="#3a312a"/><path d="m68.481 210.679h-2.396l.065.05-10.246 28.821h27.716v-13.727c0-8.363-6.776-15.144-15.139-15.144z" fill="#87796f"/><path d="m68.481 209.179h-2.396c-.644 0-1.183.435-1.389 1.045-.033.099-.055.2-.065.301l-10.14 28.522c-.164.459-.093.969.188 1.367s.738.635 1.226.635h27.715c.829 0 1.5-.671 1.5-1.5v-13.727c0-9.176-7.464-16.643-16.639-16.643zm13.639 28.871h-24.09l9.197-25.871h1.254c7.52 0 13.639 6.121 13.639 13.644z" fill="#3a312a"/><ellipse clip-rule="evenodd" cx="24.073" cy="173.155" fill="#f8e4c8" fill-rule="evenodd" rx="5.957" ry="5.957" transform="matrix(.973 -.23 .23 .973 -39.139 10.163)"/><path d="m24.073 165.698c-4.112 0-7.457 3.345-7.457 7.457s3.345 7.457 7.457 7.457 7.457-3.345 7.457-7.457c0-4.111-3.345-7.457-7.457-7.457zm0 11.915c-2.458 0-4.457-2-4.457-4.457 0-2.458 1.999-4.457 4.457-4.457s4.457 2 4.457 4.457-1.999 4.457-4.457 4.457z" fill="#3a312a"/><ellipse clip-rule="evenodd" cx="76.069" cy="173.155" fill="#f8e4c8" fill-rule="evenodd" rx="5.957" ry="5.957" transform="matrix(.23 -.973 .973 .23 -109.931 207.407)"/><path d="m76.069 165.698c-4.112 0-7.457 3.345-7.457 7.457s3.345 7.457 7.457 7.457 7.457-3.345 7.457-7.457c0-4.111-3.345-7.457-7.457-7.457zm0 11.915c-2.458 0-4.457-2-4.457-4.457 0-2.458 1.999-4.457 4.457-4.457s4.457 2 4.457 4.457-1.999 4.457-4.457 4.457z" fill="#3a312a"/><path d="m77.708 156.247c0-7.022-2.898-13.396-7.615-18.097.286.819.437 1.647.437 2.466 0 2.773-1.909 5.304-5.053 7.223.653 1.085 1.467 2.08 2.421 2.953 4.782 4.37 7.941 10.478 8.494 17.319.07-.095.226-.146.346-.191 1.131-.412.97-10.769.97-11.673z" fill="#87796f"/><path d="m79.21 156.562-.002-.314c0-7.177-2.861-13.982-8.056-19.16-.496-.494-1.267-.579-1.858-.207-.592.372-.848 1.105-.617 1.765.234.669.353 1.332.353 1.97 0 2.126-1.539 4.237-4.334 5.943-.704.43-.929 1.347-.504 2.054.729 1.211 1.634 2.316 2.694 3.287 4.659 4.257 7.503 10.058 8.01 16.332.05.625.483 1.151 1.085 1.322.136.039.273.057.41.057.32 0 .633-.103.891-.293 1.085-.396 2.014-.846 1.928-12.756zm-3.016 3.857c-1.53-4.062-4.006-7.739-7.282-10.733-.49-.449-.938-.933-1.342-1.449 2.243-1.664 3.692-3.644 4.228-5.761 2.867 4.043 4.411 8.809 4.411 13.771l.002.336c.01 1.476.003 2.745-.017 3.836z" fill="#3a312a"/><path d="m29.088 227.204c-.829 0-1.5.671-1.5 1.5v10.844c0 .829.671 1.5 1.5 1.5s1.5-.671 1.5-1.5v-10.844c0-.829-.671-1.5-1.5-1.5z" fill="#3a312a"/><path d="m71.663 227.204c-.829 0-1.5.671-1.5 1.5v10.844c0 .829.671 1.5 1.5 1.5s1.5-.671 1.5-1.5v-10.844c0-.829-.672-1.5-1.5-1.5z" fill="#3a312a"/><path d="m52.944 229.406h-5.157l-1.564 10.143h8.285z" fill="#89c4db"/><path d="m55.991 239.32-1.565-10.143c-.113-.731-.742-1.272-1.482-1.272h-5.156c-.74 0-1.37.54-1.482 1.272l-1.566 10.143c-.067.433.059.873.344 1.205s.701.523 1.139.523h8.286c.438 0 .854-.191 1.139-.523.284-.332.41-.772.343-1.205zm-8.019-1.271 1.102-7.143h2.584l1.102 7.143z" fill="#3a312a"/><path d="m46.048 220.473 1.743 8.931h5.146l1.785-8.931z" fill="#89c4db"/><path d="m55.882 219.522c-.285-.347-.711-.549-1.16-.549h-8.673c-.448 0-.873.2-1.158.546s-.4.801-.314 1.241l1.743 8.931c.137.704.754 1.212 1.472 1.212h5.146c.715 0 1.331-.505 1.471-1.206l1.784-8.931c.088-.44-.026-.896-.311-1.244zm-4.174 8.382h-2.681l-1.157-5.931h5.023z" fill="#3a312a"/><path d="m39.126 206.953h6.751v17.282h-6.751z" fill="#d7e057" transform="matrix(.799 -.602 .602 .799 -121.196 68.998)"/><path d="m51.595 219.56-10.401-13.801c-.239-.318-.595-.527-.989-.582-.392-.056-.793.048-1.111.288l-5.392 4.063c-.662.499-.793 1.439-.295 2.101l10.401 13.801c.239.318.595.527.989.583.069.01.139.015.208.015.324 0 .641-.105.903-.302l5.391-4.064c.663-.5.795-1.44.296-2.102zm-6.294 2.866-8.596-11.406 2.996-2.258 8.595 11.406z" fill="#3a312a"/><path d="m49.609 212.218h17.282v6.751h-17.282z" fill="#d7e057" transform="matrix(.602 -.799 .799 .602 -148.982 132.356)"/><path d="m67.049 209.527-5.392-4.063c-.318-.24-.72-.344-1.111-.288-.394.055-.75.265-.989.582l-10.401 13.802c-.499.662-.367 1.602.295 2.1l5.392 4.064c.262.197.579.302.903.302.069 0 .139-.005.208-.015.394-.055.75-.265.989-.583l10.401-13.801c.499-.661.367-1.601-.295-2.1zm-11.598 12.899-2.996-2.258 8.595-11.406 2.996 2.258z" fill="#3a312a"/><path d="m67.899 150.787c-.954-.869-1.768-1.864-2.421-2.943-3.677 2.25-9.051 3.672-15.038 3.672-1.421 0-2.808-.08-4.149-.236-9.624-1.095-18.85 4.646-21.899 13.843-.296.884-.502 1.733-.598 2.521-.015.11-.025.221-.035.331-.06.753-.096 1.517-.096 2.29 0 14.581 14.606 36.973 26.41 36.973 12.361 0 26.405-22.392 26.405-36.973 0-7.715-3.305-14.651-8.579-19.478z" fill="#f8e4c8"/><path d="m68.909 149.678c-.841-.766-1.563-1.644-2.147-2.61-.207-.342-.541-.587-.929-.682-.387-.093-.797-.03-1.138.178-3.583 2.193-8.779 3.451-14.255 3.451-1.345 0-2.683-.076-3.979-.227-10.369-1.176-20.247 5.071-23.491 14.856-.336 1.003-.56 1.952-.662 2.794-.018.134-.031.269-.044.415-.068.842-.101 1.63-.101 2.411 0 15.191 14.97 38.473 27.91 38.473 13.206 0 27.905-22.932 27.905-38.473 0-7.808-3.305-15.31-9.069-20.586zm-18.836 56.06c-10.994 0-24.91-21.994-24.91-35.473 0-.699.03-1.409.09-2.158.008-.086.015-.173.03-.284.08-.665.259-1.413.532-2.229 2.574-7.765 9.992-12.948 18.131-12.948.719 0 1.444.041 2.172.123 1.407.164 2.861.247 4.321.247 5.417 0 10.634-1.151 14.569-3.188.558.745 1.187 1.437 1.877 2.066 5.143 4.706 8.092 11.403 8.092 18.372.001 13.685-13.598 35.472-24.904 35.472z" fill="#3a312a"/><path d="m40.747 167.388c-1.424 0-2.578 1.154-2.578 2.578s1.154 2.578 2.578 2.578 2.578-1.154 2.578-2.578-1.154-2.578-2.578-2.578z" fill="#3a312a"/><path d="m59.395 167.388c-1.424 0-2.578 1.154-2.578 2.578s1.154 2.578 2.578 2.578 2.578-1.154 2.578-2.578-1.155-2.578-2.578-2.578z" fill="#3a312a"/><path d="m35.595 174.309c-2.452 0-4.44 1.486-4.44 3.319s1.988 3.319 4.44 3.319 4.44-1.486 4.44-3.319c.001-1.832-1.987-3.319-4.44-3.319z" fill="#f59689"/><path d="m64.547 174.309c-2.452 0-4.44 1.486-4.44 3.319s1.988 3.319 4.44 3.319 4.44-1.486 4.44-3.319c0-1.832-1.988-3.319-4.44-3.319z" fill="#f59689"/><g fill="#3a312a"><path d="m57.893 185.738c-.777-.292-1.641.103-1.931.879-.537 1.434-2.549 3.568-5.892 3.568-2.857 0-4.746-1.171-5.943-3.687-.356-.748-1.252-1.065-1.999-.71-.748.356-1.066 1.251-.71 1.999 1.705 3.581 4.616 5.398 8.652 5.398 4.56 0 7.707-2.859 8.702-5.516.291-.776-.103-1.64-.879-1.931z"/><path d="m38.543 158.861c-6.052 0-10.976 4.924-10.976 10.976s4.924 10.976 10.976 10.976 10.976-4.924 10.976-10.976-4.924-10.976-10.976-10.976zm0 18.952c-4.398 0-7.976-3.578-7.976-7.976s3.578-7.976 7.976-7.976 7.976 3.578 7.976 7.976-3.578 7.976-7.976 7.976z"/><path d="m62.206 158.861c-6.052 0-10.976 4.924-10.976 10.976s4.924 10.976 10.976 10.976 10.976-4.924 10.976-10.976-4.924-10.976-10.976-10.976zm0 18.952c-4.398 0-7.976-3.578-7.976-7.976s3.578-7.976 7.976-7.976 7.976 3.578 7.976 7.976-3.578 7.976-7.976 7.976z"/><path d="m52.73 168.317h-4.712c-.829 0-1.5.671-1.5 1.5s.671 1.5 1.5 1.5h4.712c.829 0 1.5-.671 1.5-1.5 0-.828-.671-1.5-1.5-1.5z"/><path d="m29.47 166.217-5.47-.552c-.826-.086-1.56.518-1.643 1.342-.084.824.518 1.56 1.342 1.643l5.47.552c.051.005.102.008.152.008.761 0 1.413-.577 1.49-1.35.084-.825-.517-1.56-1.341-1.643z"/><path d="m77.789 166.953c-.098-.823-.848-1.413-1.666-1.312l-4.863.579c-.823.098-1.41.844-1.312 1.667.09.763.738 1.323 1.487 1.323.059 0 .119-.003.179-.011l4.863-.579c.823-.099 1.41-.845 1.312-1.667z"/></g><path d="m52.57 127.544c-8.932-.558-16.834 3.572-20.699 7.305-5.832 4.792-8.832 13.468-8.832 21.396 0 1.449.256 9.692.718 11.731.075-.88.299-1.843.635-2.855 3.047-9.194 12.276-14.938 21.899-13.841 1.338.153 2.725.233 4.147.233 11.095 0 20.09-4.878 20.09-10.896.001-6.018-8.218-12.464-17.958-13.073z" fill="#87796f"/><path d="m52.664 126.047c-8.956-.558-17.38 3.448-21.791 7.682-5.758 4.761-9.333 13.382-9.333 22.517 0 1.054.232 9.755.755 12.063.156.688.767 1.169 1.462 1.169.034 0 .069-.001.104-.004.737-.051 1.328-.631 1.392-1.368.062-.725.252-1.57.564-2.512 2.801-8.452 11.351-13.841 20.306-12.822 1.411.161 2.863.242 4.317.242 12.107 0 21.59-5.445 21.59-12.396-.001-7.118-9.05-13.927-19.366-14.571zm-2.225 23.966c-1.341 0-2.679-.075-3.977-.223-8.939-1.023-17.51 3.482-21.785 11.014-.088-2.026-.137-3.868-.137-4.559 0-8.16 3.251-16.103 8.284-20.237.031-.026.061-.052.09-.081 3.676-3.551 10.551-6.934 18.036-6.934.506 0 1.016.016 1.527.047h.001c9.322.582 16.553 6.701 16.553 11.576-.002 5.094-8.515 9.397-18.592 9.397z" fill="#3a312a"/></svg>