<?xml version="1.0" encoding="utf-8"?>
<!-- Generator: Adobe Illustrator 21.0.0, SVG Export Plug-In . SVG Version: 6.00 Build 0)  -->
<svg version="1.1" id="Слой_1" xmlns="http://www.w3.org/2000/svg" xmlns:xlink="http://www.w3.org/1999/xlink" x="0px" y="0px"
	 viewBox="0 0 751 296" style="enable-background:new 0 0 751 296;" xml:space="preserve">
<style type="text/css">
	.st0{fill:#51A5C4;}
	.st1{fill:#3591AA;}
	.st2{fill:#006C89;}
	.st3{fill:none;stroke:#AAAAAA;stroke-width:0.5;stroke-miterlimit:10;}
	.st4{enable-background:new    ;}
</style>
<g>
	<circle class="st0" cx="368.5" cy="173.1" r="117.9"/>
	<path class="st1" d="M368.5,173.1V55.3c-65.1,0-117.9,52.8-117.9,117.9c0,30.2,11.3,57.7,30,78.5L368.5,173.1z"/>
	<path class="st2" d="M368.5,173.1V55.3c-23.9,0-46.2,7.1-64.8,19.4L368.5,173.1z"/>
	<polyline class="st3" points="347,76.3 365,14.5 380.5,14.5 	"/>
	<polyline class="st3" points="211.5,142.5 226,142.5 259.5,173.5 	"/>
	<polyline class="st3" points="540,129 523.5,129 418,182.5 	"/>
	<g class="st4">
		<path class="st2" d="M408.3,14.9c-0.5,0.5-1,1-1.6,1.3s-1.3,0.5-2.1,0.5c-1,0-1.9-0.2-2.6-0.7c-0.7-0.5-1.3-1.2-1.7-2.1
			c-0.4-0.9-0.6-1.9-0.6-2.9c0-1.2,0.2-2.2,0.7-3.1c0.4-0.9,1.1-1.6,1.9-2.1s1.7-0.7,2.8-0.7c1.7,0,3.1,0.6,4,1.9
			c1,1.3,1.5,3,1.5,5.2v0.6c0,3.4-0.7,5.8-2,7.4c-1.3,1.5-3.3,2.3-6,2.4h-0.4v-1.9h0.5c1.8,0,3.2-0.5,4.2-1.4
			C407.7,18.3,408.2,16.8,408.3,14.9z M404.9,14.9c0.7,0,1.4-0.2,2-0.7s1.1-1,1.4-1.7v-0.9c0-1.4-0.3-2.6-0.9-3.5S406,6.8,405,6.8
			c-1,0-1.7,0.4-2.3,1.1s-0.9,1.7-0.9,2.9c0,1.2,0.3,2.1,0.8,2.9C403.2,14.5,404,14.9,404.9,14.9z"/>
		<path class="st2" d="M413.4,8.5c0-1,0.3-1.9,1-2.6s1.5-1,2.5-1c1.1,0,1.9,0.3,2.6,1c0.7,0.7,1,1.6,1,2.6v0.8c0,1-0.3,1.9-1,2.6
			s-1.5,1-2.5,1c-1,0-1.9-0.3-2.5-1c-0.7-0.7-1-1.5-1-2.6V8.5z M415,9.4c0,0.6,0.2,1.1,0.5,1.5c0.3,0.4,0.8,0.6,1.4,0.6
			c0.6,0,1-0.2,1.4-0.6c0.3-0.4,0.5-0.9,0.5-1.6V8.5c0-0.6-0.2-1.1-0.5-1.5s-0.8-0.6-1.4-0.6c-0.6,0-1,0.2-1.4,0.6S415,7.9,415,8.5
			V9.4z M417.4,21.1l-1.2-0.8l8.4-13.5l1.2,0.8L417.4,21.1z M421.8,18.2c0-1,0.3-1.9,1-2.6c0.7-0.7,1.5-1,2.5-1c1,0,1.9,0.3,2.5,1
			s1,1.5,1,2.6v0.8c0,1-0.3,1.9-1,2.6s-1.5,1-2.5,1s-1.9-0.3-2.5-1s-1-1.5-1-2.6V18.2z M423.4,19.1c0,0.6,0.2,1.1,0.5,1.5
			c0.3,0.4,0.8,0.6,1.4,0.6c0.6,0,1-0.2,1.4-0.6c0.3-0.4,0.5-0.9,0.5-1.6v-0.9c0-0.6-0.2-1.1-0.5-1.5c-0.3-0.4-0.8-0.6-1.4-0.6
			c-0.6,0-1,0.2-1.4,0.6c-0.4,0.4-0.5,0.9-0.5,1.6V19.1z"/>
	</g>
	<g class="st4">
		<path d="M436.4,19.2c0-0.6,0.1-1.2,0.4-1.7s0.6-0.9,1-1.2c0.4-0.3,0.9-0.4,1.5-0.4c0.9,0,1.6,0.3,2.1,0.9c0.5,0.6,0.8,1.4,0.8,2.4
			v0.1c0,0.6-0.1,1.2-0.4,1.7c-0.2,0.5-0.6,0.9-1,1.2c-0.4,0.3-1,0.4-1.5,0.4c-0.9,0-1.6-0.3-2.1-0.9
			C436.7,21.1,436.4,20.3,436.4,19.2L436.4,19.2z M437.5,19.3c0,0.7,0.2,1.3,0.5,1.7s0.8,0.6,1.3,0.6c0.6,0,1-0.2,1.3-0.7
			c0.3-0.4,0.5-1,0.5-1.8c0-0.7-0.2-1.3-0.5-1.7s-0.8-0.7-1.3-0.7c-0.5,0-1,0.2-1.3,0.6S437.5,18.5,437.5,19.3z"/>
		<path d="M448.3,16.9h-2.2v5.5H445v-5.5h-2.1V16h5.4V16.9z"/>
	</g>
	<g class="st4">
		<path class="st2" d="M462.7,22.5h-2.2V7.8l-4.4,1.6v-2l6.3-2.4h0.3V22.5z"/>
		<path class="st2" d="M470.2,13.8l0.9-8.6h8.8v2h-7l-0.5,4.7c0.8-0.5,1.8-0.7,2.9-0.7c1.6,0,2.8,0.5,3.7,1.6c0.9,1,1.4,2.4,1.4,4.2
			c0,1.8-0.5,3.2-1.4,4.2c-1,1-2.3,1.5-4,1.5c-1.5,0-2.8-0.4-3.7-1.3c-1-0.8-1.5-2-1.6-3.5h2.1c0.1,1,0.5,1.7,1.1,2.2
			s1.3,0.8,2.3,0.8c1,0,1.8-0.3,2.4-1c0.6-0.7,0.9-1.7,0.9-2.9c0-1.2-0.3-2.1-0.9-2.8c-0.6-0.7-1.5-1-2.5-1c-1,0-1.7,0.2-2.3,0.6
			l-0.6,0.5L470.2,13.8z"/>
		<path class="st2" d="M493.6,15.1c0,2.6-0.4,4.5-1.3,5.7c-0.9,1.2-2.2,1.9-4.1,1.9c-1.8,0-3.2-0.6-4.1-1.8c-0.9-1.2-1.3-3-1.4-5.5
			v-2.9c0-2.5,0.4-4.4,1.3-5.7c0.9-1.2,2.3-1.9,4.1-1.9c1.9,0,3.2,0.6,4.1,1.8c0.9,1.2,1.3,3,1.4,5.5V15.1z M491.4,12.1
			c0-1.9-0.3-3.2-0.8-4.1c-0.5-0.8-1.3-1.3-2.5-1.3c-1.1,0-1.9,0.4-2.5,1.3c-0.5,0.8-0.8,2.1-0.8,3.9v3.5c0,1.9,0.3,3.2,0.8,4.1
			c0.5,0.9,1.4,1.3,2.5,1.3c1.1,0,1.9-0.4,2.4-1.3s0.8-2.2,0.8-4V12.1z"/>
	</g>
	<g class="st4">
		<path d="M503.6,16.9h-2.2v5.5h-1.1v-5.5h-2.1V16h5.4V16.9z"/>
		<path d="M505.8,18.2h1.7c0.7,0,1.3,0.2,1.7,0.6c0.4,0.4,0.6,0.9,0.6,1.5c0,0.6-0.2,1.2-0.7,1.5c-0.4,0.4-1,0.6-1.8,0.6h-2.7V16
			h1.1V18.2z M505.8,19.1v2.4h1.6c0.4,0,0.7-0.1,1-0.3c0.2-0.2,0.3-0.5,0.3-0.9c0-0.4-0.1-0.6-0.3-0.9c-0.2-0.2-0.5-0.3-0.9-0.4
			H505.8z M512.2,22.5h-1.1V16h1.1V22.5z"/>
		<path d="M516.6,21.7c0.4,0,0.7-0.1,1-0.4c0.3-0.2,0.5-0.5,0.5-0.9h1c0,0.4-0.1,0.7-0.4,1c-0.2,0.3-0.5,0.6-0.9,0.8
			c-0.4,0.2-0.8,0.3-1.2,0.3c-0.9,0-1.6-0.3-2.1-0.9c-0.5-0.6-0.8-1.4-0.8-2.4v-0.2c0-0.6,0.1-1.2,0.3-1.7c0.2-0.5,0.6-0.9,1-1.1
			c0.4-0.3,0.9-0.4,1.5-0.4c0.7,0,1.3,0.2,1.8,0.6s0.7,1,0.8,1.7h-1c0-0.4-0.2-0.8-0.5-1c-0.3-0.3-0.6-0.4-1-0.4
			c-0.6,0-1,0.2-1.3,0.6s-0.5,1-0.5,1.7v0.2c0,0.7,0.2,1.3,0.5,1.7C515.6,21.5,516.1,21.7,516.6,21.7z"/>
	</g>
	<g class="st4">
		<path class="st0" d="M556.4,119.5v1.8H556c-1.7,0-3,0.5-4,1.5s-1.6,2.3-1.7,4.1c0.9-1,2.1-1.5,3.7-1.5c1.5,0,2.7,0.5,3.6,1.6
			s1.3,2.4,1.3,4.1c0,1.8-0.5,3.2-1.4,4.2s-2.2,1.6-3.8,1.6c-1.6,0-3-0.6-4-1.9c-1-1.3-1.5-2.9-1.5-4.8v-0.8c0-3.1,0.7-5.5,2-7.2
			s3.3-2.5,6-2.5H556.4z M553.6,127.1c-0.7,0-1.4,0.2-2.1,0.7s-1.1,1-1.3,1.7v0.8c0,1.4,0.3,2.5,0.9,3.4s1.4,1.3,2.4,1.3
			c1,0,1.7-0.4,2.3-1.1s0.8-1.7,0.8-2.8c0-1.2-0.3-2.1-0.8-2.8S554.5,127.1,553.6,127.1z"/>
		<path class="st0" d="M568.5,136.5h-2.2v-14.4l-4.4,1.6v-2l6.2-2.3h0.3V136.5z"/>
		<path class="st0" d="M574.7,122.7c0-1,0.3-1.9,1-2.5c0.7-0.7,1.5-1,2.5-1c1,0,1.9,0.3,2.5,1s1,1.5,1,2.6v0.8c0,1-0.3,1.9-1,2.5
			s-1.5,1-2.5,1c-1,0-1.9-0.3-2.5-1c-0.7-0.7-1-1.5-1-2.6V122.7z M576.3,123.6c0,0.6,0.2,1.1,0.5,1.5c0.3,0.4,0.8,0.6,1.4,0.6
			c0.6,0,1-0.2,1.3-0.6c0.3-0.4,0.5-0.9,0.5-1.6v-0.9c0-0.6-0.2-1.1-0.5-1.5s-0.8-0.6-1.4-0.6s-1,0.2-1.4,0.6
			c-0.3,0.4-0.5,0.9-0.5,1.6V123.6z M578.7,135.2l-1.2-0.8l8.3-13.3l1.2,0.8L578.7,135.2z M583,132.3c0-1,0.3-1.9,1-2.5
			c0.7-0.7,1.5-1,2.5-1s1.9,0.3,2.5,1c0.7,0.7,1,1.5,1,2.6v0.8c0,1-0.3,1.9-1,2.5s-1.5,1-2.5,1s-1.9-0.3-2.5-1s-1-1.5-1-2.6V132.3z
			 M584.6,133.3c0,0.6,0.2,1.1,0.5,1.5s0.8,0.6,1.4,0.6c0.6,0,1-0.2,1.3-0.6s0.5-0.9,0.5-1.6v-0.9c0-0.6-0.2-1.1-0.5-1.5
			s-0.8-0.6-1.4-0.6c-0.6,0-1,0.2-1.4,0.6s-0.5,0.9-0.5,1.6V133.3z"/>
	</g>
	<g class="st4">
		<path d="M597.5,133.3c0-0.6,0.1-1.2,0.4-1.7s0.6-0.9,1-1.1s0.9-0.4,1.5-0.4c0.9,0,1.6,0.3,2.1,0.9s0.8,1.4,0.8,2.4v0.1
			c0,0.6-0.1,1.2-0.4,1.7s-0.6,0.9-1,1.1s-0.9,0.4-1.5,0.4c-0.9,0-1.6-0.3-2.1-0.9S597.5,134.4,597.5,133.3L597.5,133.3z
			 M598.6,133.4c0,0.7,0.2,1.3,0.5,1.7s0.8,0.6,1.3,0.6c0.6,0,1-0.2,1.3-0.6s0.5-1,0.5-1.8c0-0.7-0.2-1.3-0.5-1.7s-0.8-0.6-1.3-0.6
			c-0.5,0-1,0.2-1.3,0.6S598.6,132.6,598.6,133.4z"/>
		<path d="M609.2,131.1h-2.1v5.5H606v-5.5h-2.1v-0.9h5.3V131.1z"/>
	</g>
	<g class="st4">
		<path class="st0" d="M617.4,128l0.9-8.5h8.7v2h-6.9l-0.5,4.7c0.8-0.5,1.8-0.7,2.8-0.7c1.6,0,2.8,0.5,3.7,1.5s1.4,2.4,1.4,4.2
			c0,1.8-0.5,3.1-1.4,4.2s-2.3,1.5-4,1.5c-1.5,0-2.7-0.4-3.7-1.3c-1-0.8-1.5-2-1.6-3.5h2c0.1,1,0.5,1.7,1,2.2s1.3,0.7,2.2,0.7
			c1,0,1.8-0.3,2.4-1s0.9-1.6,0.9-2.8c0-1.1-0.3-2.1-0.9-2.7s-1.4-1-2.5-1c-0.9,0-1.7,0.2-2.2,0.6l-0.6,0.5L617.4,128z"/>
		<path class="st0" d="M640.6,129.3c0,2.5-0.4,4.4-1.3,5.7c-0.9,1.2-2.2,1.9-4.1,1.9c-1.8,0-3.2-0.6-4-1.8s-1.3-3-1.4-5.4v-2.9
			c0-2.5,0.4-4.4,1.3-5.6s2.2-1.8,4.1-1.8c1.8,0,3.2,0.6,4.1,1.8c0.9,1.2,1.3,3,1.3,5.4V129.3z M638.4,126.3c0-1.8-0.3-3.2-0.8-4
			s-1.3-1.3-2.4-1.3c-1.1,0-1.9,0.4-2.4,1.3s-0.8,2.1-0.8,3.9v3.5c0,1.8,0.3,3.2,0.8,4.1s1.3,1.3,2.4,1.3c1.1,0,1.9-0.4,2.4-1.2
			c0.5-0.8,0.8-2.1,0.8-3.9V126.3z"/>
		<path class="st0" d="M654,129.3c0,2.5-0.4,4.4-1.3,5.7s-2.2,1.9-4.1,1.9c-1.8,0-3.2-0.6-4-1.8c-0.9-1.2-1.3-3-1.4-5.4v-2.9
			c0-2.5,0.4-4.4,1.3-5.6c0.9-1.2,2.2-1.8,4.1-1.8c1.8,0,3.2,0.6,4.1,1.8s1.3,3,1.3,5.4V129.3z M651.9,126.3c0-1.8-0.3-3.2-0.8-4
			s-1.3-1.3-2.4-1.3c-1.1,0-1.9,0.4-2.4,1.3s-0.8,2.1-0.8,3.9v3.5c0,1.8,0.3,3.2,0.8,4.1s1.3,1.3,2.4,1.3c1.1,0,1.9-0.4,2.4-1.2
			s0.8-2.1,0.8-3.9V126.3z"/>
	</g>
	<g class="st4">
		<path d="M663.9,131.1h-2.1v5.5h-1.1v-5.5h-2.1v-0.9h5.3V131.1z"/>
		<path d="M666.1,132.4h1.6c0.7,0,1.3,0.2,1.7,0.6s0.6,0.9,0.6,1.5c0,0.6-0.2,1.1-0.6,1.5s-1,0.6-1.7,0.6H665v-6.3h1.1V132.4z
			 M666.1,133.3v2.4h1.6c0.4,0,0.7-0.1,0.9-0.3s0.3-0.5,0.3-0.9c0-0.4-0.1-0.6-0.3-0.9s-0.5-0.3-0.9-0.3H666.1z M672.4,136.5h-1.1
			v-6.3h1.1V136.5z"/>
		<path d="M676.8,135.8c0.4,0,0.7-0.1,1-0.4s0.4-0.5,0.5-0.9h1c0,0.4-0.1,0.7-0.4,1s-0.5,0.6-0.9,0.8s-0.8,0.3-1.2,0.3
			c-0.9,0-1.5-0.3-2.1-0.9s-0.8-1.4-0.8-2.4v-0.2c0-0.6,0.1-1.2,0.3-1.6s0.6-0.9,1-1.1c0.4-0.3,0.9-0.4,1.5-0.4
			c0.7,0,1.3,0.2,1.8,0.6c0.5,0.4,0.7,1,0.8,1.7h-1c0-0.4-0.2-0.7-0.5-1s-0.6-0.4-1-0.4c-0.6,0-1,0.2-1.3,0.6s-0.5,1-0.5,1.7v0.2
			c0,0.7,0.2,1.3,0.5,1.7S676.2,135.8,676.8,135.8z"/>
	</g>
	<g class="st4">
		<path class="st1" d="M77,141.2h1.6c1,0,1.8-0.3,2.4-0.8c0.6-0.5,0.9-1.2,0.9-2.1c0-2-1-2.9-2.9-2.9c-0.9,0-1.7,0.3-2.2,0.8
			c-0.5,0.5-0.8,1.2-0.8,2.1h-2.1c0-1.3,0.5-2.4,1.5-3.3c1-0.9,2.2-1.3,3.7-1.3c1.6,0,2.8,0.4,3.7,1.3c0.9,0.8,1.3,2,1.3,3.5
			c0,0.7-0.2,1.4-0.7,2.1c-0.5,0.7-1.1,1.2-1.9,1.5c0.9,0.3,1.6,0.8,2.1,1.4s0.8,1.5,0.8,2.5c0,1.5-0.5,2.7-1.5,3.6
			c-1,0.9-2.3,1.3-3.8,1.3s-2.8-0.4-3.8-1.3c-1-0.9-1.5-2-1.5-3.4h2.1c0,0.9,0.3,1.6,0.9,2.1s1.3,0.8,2.3,0.8c1,0,1.8-0.3,2.4-0.8
			c0.5-0.5,0.8-1.3,0.8-2.3c0-1-0.3-1.7-0.9-2.2c-0.6-0.5-1.5-0.8-2.6-0.8H77V141.2z"/>
		<path class="st1" d="M97.6,143.5c0,2.5-0.4,4.3-1.3,5.6c-0.9,1.2-2.2,1.8-4,1.8c-1.8,0-3.1-0.6-4-1.8c-0.9-1.2-1.3-3-1.3-5.3v-2.8
			c0-2.5,0.4-4.3,1.3-5.5s2.2-1.8,4-1.8c1.8,0,3.1,0.6,4,1.7c0.9,1.2,1.3,2.9,1.3,5.3V143.5z M95.5,140.6c0-1.8-0.3-3.1-0.8-3.9
			c-0.5-0.8-1.3-1.2-2.4-1.2c-1.1,0-1.9,0.4-2.4,1.2c-0.5,0.8-0.8,2.1-0.8,3.8v3.4c0,1.8,0.3,3.1,0.8,4s1.3,1.3,2.4,1.3
			c1,0,1.8-0.4,2.3-1.2c0.5-0.8,0.8-2.1,0.8-3.8V140.6z"/>
		<path class="st1" d="M100.1,137.1c0-1,0.3-1.8,1-2.5c0.6-0.7,1.5-1,2.5-1c1,0,1.8,0.3,2.5,1c0.6,0.7,0.9,1.5,0.9,2.5v0.8
			c0,1-0.3,1.8-1,2.5c-0.6,0.6-1.5,1-2.4,1c-1,0-1.8-0.3-2.5-1c-0.7-0.6-1-1.5-1-2.6V137.1z M101.7,138c0,0.6,0.2,1.1,0.5,1.5
			c0.3,0.4,0.8,0.6,1.4,0.6c0.5,0,1-0.2,1.3-0.6c0.3-0.4,0.5-0.9,0.5-1.5v-0.8c0-0.6-0.2-1.1-0.5-1.5c-0.3-0.4-0.8-0.6-1.3-0.6
			c-0.6,0-1,0.2-1.3,0.6s-0.5,0.9-0.5,1.5V138z M104,149.4l-1.2-0.8l8.2-13.1l1.2,0.8L104,149.4z M108.3,146.5c0-1,0.3-1.8,1-2.5
			c0.6-0.6,1.5-1,2.5-1s1.8,0.3,2.5,1s1,1.5,1,2.6v0.8c0,1-0.3,1.8-1,2.5c-0.6,0.6-1.5,1-2.5,1s-1.8-0.3-2.5-1c-0.7-0.6-1-1.5-1-2.6
			V146.5z M109.9,147.4c0,0.6,0.2,1.1,0.5,1.5c0.3,0.4,0.8,0.6,1.4,0.6c0.6,0,1-0.2,1.3-0.6c0.3-0.4,0.5-0.9,0.5-1.5v-0.9
			c0-0.6-0.2-1.1-0.5-1.5c-0.3-0.4-0.8-0.6-1.3-0.6c-0.5,0-1,0.2-1.3,0.6c-0.3,0.4-0.5,0.9-0.5,1.5V147.4z"/>
	</g>
	<g class="st4">
		<path d="M122.5,147.5c0-0.6,0.1-1.2,0.4-1.6c0.2-0.5,0.6-0.9,1-1.1c0.4-0.3,0.9-0.4,1.5-0.4c0.8,0,1.5,0.3,2.1,0.9
			s0.8,1.4,0.8,2.3v0.1c0,0.6-0.1,1.1-0.3,1.6c-0.2,0.5-0.6,0.9-1,1.1c-0.4,0.3-0.9,0.4-1.5,0.4c-0.8,0-1.5-0.3-2-0.9
			C122.8,149.3,122.5,148.5,122.5,147.5L122.5,147.5z M123.6,147.6c0,0.7,0.2,1.2,0.5,1.7c0.3,0.4,0.7,0.6,1.3,0.6
			c0.5,0,1-0.2,1.3-0.6c0.3-0.4,0.5-1,0.5-1.8c0-0.7-0.2-1.2-0.5-1.7c-0.3-0.4-0.8-0.6-1.3-0.6c-0.5,0-0.9,0.2-1.3,0.6
			C123.7,146.2,123.6,146.8,123.6,147.6z"/>
		<path d="M134,145.3h-2.1v5.4h-1.1v-5.4h-2v-0.9h5.2V145.3z"/>
	</g>
	<g class="st4">
		<path class="st1" d="M144.1,141.2h1.6c1,0,1.8-0.3,2.4-0.8c0.6-0.5,0.9-1.2,0.9-2.1c0-2-1-2.9-2.9-2.9c-0.9,0-1.7,0.3-2.2,0.8
			c-0.5,0.5-0.8,1.2-0.8,2.1h-2.1c0-1.3,0.5-2.4,1.5-3.3c1-0.9,2.2-1.3,3.7-1.3c1.6,0,2.8,0.4,3.7,1.3c0.9,0.8,1.3,2,1.3,3.5
			c0,0.7-0.2,1.4-0.7,2.1c-0.5,0.7-1.1,1.2-1.9,1.5c0.9,0.3,1.6,0.8,2.1,1.4s0.8,1.5,0.8,2.5c0,1.5-0.5,2.7-1.5,3.6
			c-1,0.9-2.3,1.3-3.8,1.3s-2.8-0.4-3.8-1.3c-1-0.9-1.5-2-1.5-3.4h2.1c0,0.9,0.3,1.6,0.9,2.1s1.3,0.8,2.3,0.8c1,0,1.8-0.3,2.4-0.8
			c0.5-0.5,0.8-1.3,0.8-2.3c0-1-0.3-1.7-0.9-2.2c-0.6-0.5-1.5-0.8-2.6-0.8h-1.6V141.2z"/>
		<path class="st1" d="M164.7,143.5c0,2.5-0.4,4.3-1.3,5.6c-0.9,1.2-2.2,1.8-4,1.8c-1.8,0-3.1-0.6-4-1.8c-0.9-1.2-1.3-3-1.3-5.3
			v-2.8c0-2.5,0.4-4.3,1.3-5.5s2.2-1.8,4-1.8c1.8,0,3.1,0.6,4,1.7c0.9,1.2,1.3,2.9,1.3,5.3V143.5z M162.6,140.6
			c0-1.8-0.3-3.1-0.8-3.9c-0.5-0.8-1.3-1.2-2.4-1.2c-1.1,0-1.9,0.4-2.4,1.2c-0.5,0.8-0.8,2.1-0.8,3.8v3.4c0,1.8,0.3,3.1,0.8,4
			s1.3,1.3,2.4,1.3c1,0,1.8-0.4,2.3-1.2c0.5-0.8,0.8-2.1,0.8-3.8V140.6z"/>
		<path class="st1" d="M177.9,143.5c0,2.5-0.4,4.3-1.3,5.6c-0.9,1.2-2.2,1.8-4,1.8c-1.8,0-3.1-0.6-4-1.8c-0.9-1.2-1.3-3-1.3-5.3
			v-2.8c0-2.5,0.4-4.3,1.3-5.5s2.2-1.8,4-1.8c1.8,0,3.1,0.6,4,1.7c0.9,1.2,1.3,2.9,1.3,5.3V143.5z M175.8,140.6
			c0-1.8-0.3-3.1-0.8-3.9c-0.5-0.8-1.3-1.2-2.4-1.2c-1.1,0-1.9,0.4-2.4,1.2c-0.5,0.8-0.8,2.1-0.8,3.8v3.4c0,1.8,0.3,3.1,0.8,4
			s1.3,1.3,2.4,1.3c1,0,1.8-0.4,2.3-1.2c0.5-0.8,0.8-2.1,0.8-3.8V140.6z"/>
	</g>
	<g class="st4">
		<path d="M187.6,145.3h-2.1v5.4h-1.1v-5.4h-2v-0.9h5.2V145.3z"/>
		<path d="M189.8,146.5h1.6c0.7,0,1.3,0.2,1.7,0.6c0.4,0.4,0.6,0.8,0.6,1.5c0,0.6-0.2,1.1-0.6,1.5c-0.4,0.4-1,0.6-1.7,0.6h-2.6v-6.2
			h1.1V146.5z M189.8,147.4v2.3h1.6c0.4,0,0.7-0.1,0.9-0.3c0.2-0.2,0.3-0.5,0.3-0.8c0-0.3-0.1-0.6-0.3-0.8c-0.2-0.2-0.5-0.3-0.9-0.3
			H189.8z M195.9,150.6h-1.1v-6.2h1.1V150.6z"/>
		<path d="M200.3,149.9c0.4,0,0.7-0.1,1-0.3s0.4-0.5,0.5-0.9h1c0,0.4-0.1,0.7-0.4,1c-0.2,0.3-0.5,0.6-0.9,0.8
			c-0.4,0.2-0.8,0.3-1.2,0.3c-0.8,0-1.5-0.3-2-0.8c-0.5-0.6-0.8-1.3-0.8-2.3v-0.2c0-0.6,0.1-1.1,0.3-1.6s0.5-0.8,1-1.1
			s0.9-0.4,1.5-0.4c0.7,0,1.3,0.2,1.7,0.6c0.5,0.4,0.7,1,0.7,1.6h-1c0-0.4-0.2-0.7-0.5-1c-0.3-0.3-0.6-0.4-1-0.4
			c-0.5,0-1,0.2-1.3,0.6c-0.3,0.4-0.4,1-0.4,1.7v0.2c0,0.7,0.1,1.3,0.4,1.7C199.3,149.7,199.7,149.9,200.3,149.9z"/>
	</g>
</g>
</svg>
