<?xml version="1.0" encoding="iso-8859-1"?>
<!-- Generator: Adobe Illustrator 19.0.0, SVG Export Plug-In . SVG Version: 6.00 Build 0)  -->
<svg version="1.1" id="Capa_1" xmlns="http://www.w3.org/2000/svg" xmlns:xlink="http://www.w3.org/1999/xlink" x="0px" y="0px"
	 viewBox="0 0 512 512" style="enable-background:new 0 0 512 512;" xml:space="preserve">
<path style="fill:#E6E9ED;" d="M129.58,285.94h-22.536v164.824h22.536c4.132,0,7.512-3.282,7.512-7.293s0-10.671,0-14.802V308.475
	c0-4.132,0-10.892,0-15.024C137.092,289.32,133.712,285.94,129.58,285.94z"/>
<path style="fill:#656D78;" d="M107.045,443.251c0,4.132,0,10.892,0,15.024v0.44c0,4.132-3.38,7.512-7.512,7.512H7.512
	c-4.132,0-7.512-3.38-7.512-7.512V278.426c0-4.132,3.38-7.512,7.512-7.512h92.021c4.132,0,7.512,3.38,7.512,7.512v0.002
	c0,4.132,0,10.892,0,15.024V443.251z"/>
<path style="fill:#FFDECF;" d="M360.955,353.768l16.522-7.512c37.56-15.026,90.143-41.008,90.143-41.008
	c14.423-8.261,32.749-3.448,41.024,10.958c8.259,14.437,0,30.05-10.974,41.024c0,0-135.216,109.216-180.29,109.216
	c-45.071,0-180.288-30.048-180.288-30.048V301.183c75.119-12.471,100.81,7.512,210.335,42.518
	c6.016,2.555,10.065,6.164,12.618,10.537L360.955,353.768z"/>
<g>
	<path style="fill:#FFCDBE;" d="M508.644,316.207c-3.023-5.266-7.41-9.214-12.428-11.751c-1.833,8.376-7.189,16.344-13.573,22.725
		c0,0-120.19,106.46-165.264,106.46c-35.916,0-143.931-16.286-180.288-24.032v26.79c0,0,135.216,30.048,180.288,30.048
		c45.073,0,180.29-109.216,180.29-109.216C508.644,346.256,516.903,330.644,508.644,316.207z"/>
	<path style="fill:#FFCDBE;" d="M336.909,399.411c12.177,0,24.545-6.763,32.734-18.281c7.877-11.077,9.462-23.71,4.386-33.289
		l-13.074,5.927l-0.587,0.293c0.104,0.16,0.323,0.454,0.398,0.571c2.51,4.388,1.19,11.372-3.374,17.798
		c-5.018,7.072-14.277,13.41-23.637,11.679c-14.73-2.699-101.807-14.584-105.505-15.083c-4.065-0.587-7.894,2.318-8.451,6.426
		c-0.558,4.108,2.318,7.894,6.426,8.451c0.894,0.117,90.438,12.338,104.801,14.965C332.976,399.234,334.943,399.411,336.909,399.411
		z"/>
</g>
<g>
	<path style="fill:#FFCE54;" d="M77.773,458.935h-0.162c-4.138,0-7.424,3.374-7.424,7.512h15.098
		C85.285,462.309,81.911,458.935,77.773,458.935z"/>
	<path style="fill:#FFCE54;" d="M243.155,220.833c-23.472,0-42.567-19.094-42.567-42.567s19.095-42.569,42.567-42.569
		c23.472,0,42.568,19.096,42.568,42.569C285.723,201.738,266.627,220.833,243.155,220.833z"/>
</g>
<path style="fill:#F6BB42;" d="M243.155,220.833c-23.472,0-42.567-19.094-42.567-42.567v30.048
	c0,23.473,19.095,42.567,42.567,42.567c23.472,0,42.568-19.094,42.568-42.567v-30.048
	C285.723,201.738,266.627,220.833,243.155,220.833z"/>
<path style="fill:#DCA746;" d="M243.155,195.793c-4.149,0-7.512-3.362-7.512-7.512v-20.032c0-4.15,3.363-7.512,7.512-7.512
	c4.149,0,7.512,3.362,7.512,7.512v20.032C250.667,192.431,247.304,195.793,243.155,195.793z"/>
<path style="fill:#FFCE54;" d="M378.369,180.769c-37.28,0-67.609-30.329-67.609-67.609c0-37.278,30.329-67.607,67.609-67.607
	c37.279,0,67.607,30.329,67.607,67.607C445.976,150.44,415.648,180.769,378.369,180.769z"/>
<path style="fill:#F6BB42;" d="M378.369,180.769c-37.28,0-67.609-30.329-67.609-67.609v30.046c0,37.28,30.329,67.609,67.609,67.609
	c37.279,0,67.607-30.329,67.607-67.609V113.16C445.976,150.44,415.648,180.769,378.369,180.769z"/>
<path style="fill:#DCA746;" d="M378.365,140.708h-0.001c-4.149,0-7.512-3.364-7.511-7.512l0.008-40.069
	c0.001-4.148,3.363-7.51,7.512-7.51h0.001c4.149,0.002,7.512,3.364,7.511,7.514l-0.008,40.067
	C385.876,137.347,382.513,140.708,378.365,140.708z"/>
<g>
</g>
<g>
</g>
<g>
</g>
<g>
</g>
<g>
</g>
<g>
</g>
<g>
</g>
<g>
</g>
<g>
</g>
<g>
</g>
<g>
</g>
<g>
</g>
<g>
</g>
<g>
</g>
<g>
</g>
</svg>
