<svg height="523.61777pt" viewBox="0 0 523.61777 523.61777" width="523.61777pt" xmlns="http://www.w3.org/2000/svg"><path d="m294.535156 179.992188v343.625h-130.90625v-284.878907l58.746094-58.746093zm0 0" fill="#64b5f6"/><path d="m458.164062 65.453125v458.164063h-130.902343v-343.625h9.164062l104.066407-114.539063zm0 0" fill="#fdd835"/><path d="m130.90625 294.535156v229.082032h-130.90625v-212.71875h91.46875l16.363281-16.363282zm0 0" fill="#8bc34a"/><path d="m107.832031 294.535156h23.074219v69.378906l-12.4375 12.4375h-118.46875v-65.453124h91.46875zm0 0" fill="#689f38"/><path d="m222.375 179.992188h72.160156v65.453124h-45.164062l-85.742188 85.742188v-92.449219zm0 0" fill="#42a5f5"/><path d="m458.164062 65.453125v77.886719l-92.941406 102.105468h-37.960937v-65.453124h9.164062l104.066407-114.539063zm0 0" fill="#fbc02d"/><path d="m523.617188 0v114.542969h-32.726563v-55.800781l-140.066406 153.976562h-115.03125l-130.90625 130.90625h-104.886719v-32.726562h91.46875l130.90625-130.90625h114.050781l133.847657-147.265626h-61.195313v-32.726562zm0 0" fill="#ef5350"/><path d="m81.816406 65.453125h49.089844v-32.726563h-32.726562v-32.726562h-32.726563v35.738281c-19 6.773438-32.726563 24.773438-32.726563 46.078125 0 27.0625 22.023438 49.089844 49.089844 49.089844 9.03125 0 16.363282 7.328125 16.363282 16.359375 0 9.035156-7.332032 16.363281-16.363282 16.363281h-49.089844v32.726563h32.726563v32.726562h32.726563v-35.734375c18.996093-6.777344 32.726562-24.777344 32.726562-46.082031 0-27.0625-22.027344-49.085937-49.089844-49.085937-9.035156 0-16.363281-7.332032-16.363281-16.363282 0-9.035156 7.328125-16.363281 16.363281-16.363281zm0 0" fill="#fdd835"/></svg>